<svg xmlns="http://www.w3.org/2000/svg" xmlns:xlink="http://www.w3.org/1999/xlink" viewBox="0 0 500 500"><defs><clipPath id="freepik--clip-path--inject-582"><path d="M266.25,408.63s25.07-4.13,35.86-15.23,13-28.24,17.45-33,14.91-12.38,16.18-15.55.64-4.13-6-1.27-22.53,18.09-35.23,34.59A259.12,259.12,0,0,1,266.25,408.63Z" style="fill:#92E3A9;stroke:#263238;stroke-linecap:round;stroke-linejoin:round"></path></clipPath><clipPath id="freepik--clip-path-2--inject-582"><path d="M134.29,452.27s7.47,8.36,18.22,10.75,25.68-3.28,28.36-6.87-6.57-4.47-13.43-4.47S144.15,455.56,134.29,452.27Z" style="fill:#92E3A9;stroke:#263238;stroke-linecap:round;stroke-linejoin:round"></path></clipPath><clipPath id="freepik--clip-path-3--inject-582"><path d="M103.54,398.55a50.24,50.24,0,0,0-23.87-6.95c-13.44-.23-25.73,13-28.05,16.69S42.12,415,41,419.64s3,8.12,7.19,8.81a8,8,0,0,0,6.49-1.39,7.08,7.08,0,0,0,4.63,1.85c2.78,0,12.52-2.08,18.78-.46s7.88,10.66,24.33,17.15,30.36,9.27,34.53,9.5,13.21,7,63.27-9.27,71.15-38,71.15-38,25-24.56,38.94-41.48,31.52-26.89,40.79-29.67,32.68-6.25,51.68-.92S432.87,345,448.4,352s26.88,10,35.46,7.65-2.32-.47-9.74-2.55-30.13-21.79-54-30.13S362.18,313.5,339,319.06s-42.18,10.66-60,21.55-64.89,38.94-84.36,48-59.56,15.76-69.76,14.83S107.71,400.41,103.54,398.55Z" style="fill:#92E3A9;stroke:#263238;stroke-linecap:round;stroke-linejoin:round"></path></clipPath><clipPath id="freepik--clip-path-4--inject-582"><path d="M268.47,397.52s32-16.18,43.16-33.63,24.11-34.91,29.51-40,8.88-5.4,8.57-8.25-10.48-3.81-16.5.31-9.52,6-16.5,15.87-18.41,15.87-21.58,18.09" style="fill:#92E3A9;stroke:#263238;stroke-linecap:round;stroke-linejoin:round"></path></clipPath><clipPath id="freepik--clip-path-5--inject-582"><path d="M128.62,430.18a12,12,0,0,0,1.79,8.36c2.69,3.88,21.8,9.85,35.53,9.85s12.84-4.18,11.95-4.78L177,443s2.09-3.29-.89-4.78a8.47,8.47,0,0,0-5.38-.9s-.3-2.38-3.88-2.38-5.37,1.19-9.26.29-5.37-3-5.37-3,11.64,2.09,19.11-4.48" style="fill:#92E3A9;stroke:#263238;stroke-linecap:round;stroke-linejoin:round"></path></clipPath><clipPath id="freepik--clip-path-6--inject-582"><path d="M314.6,276.69s5.38,6.73,5.72,8.07-2.36,6.06-3.7,12.45,3.7,5.38,3.7,5.38,1,5,2.35,5a6.3,6.3,0,0,0,3-1.34s1,3,3,1,7.06-11.1,7.39-18.16a42,42,0,0,0-2-14.8c-.68-2-16.15-2.69-18.5-2s-1.35,3-1.35,3" style="fill:#92E3A9;stroke:#263238;stroke-linecap:round;stroke-linejoin:round"></path></clipPath><clipPath id="freepik--clip-path-7--inject-582"><path d="M163.27,128.4c5.76,1.83-13.07,11.65-21.31,26.43s-3.41,19.89-2.56,26.71-3.13,10.8-6.54,15.06-1.7,11.94-1.7,11.94l3.12-1.42a17.15,17.15,0,0,0-.85,4c-.28,2.56,3.7,6.82,3.7,6.82s1.42-1.71,3.41-4a14.38,14.38,0,0,1,4.83-3.41l-.57,5.12s7.1.85,11.94-6.54,1.7-15.06.28-20.75,4-7.1,4-7.1h4.83c4.83,0,13.64,2.55,44,20.18s39.5,28.7,52.29,40.35,26.72,18.19,44.91,31.55,40.35,7.1,60,.57,37.23-23.31,37.23-23.31,17.34-8.24,16.48-25.86-15.06-21.32-32.11-23-19.89,3.69-30.69,7.1-22.45,2.56-44.05-28.42-22.17-37.79-50.59-58.82c0,0-24-20.53-51-29.52s-63.62-9.64-95.1-6.43S52.3,68.28,43.3,46.44,33,11.09,30.45,15s-3.21,73.9,36.63,95.74S150.23,124.25,163.27,128.4Z" style="fill:#92E3A9;stroke:#263238;stroke-linecap:round;stroke-linejoin:round"></path></clipPath><clipPath id="freepik--clip-path-8--inject-582"><path d="M394.32,211.38s-11.08-.57-17.33,8.53,1.14,15.91,7.1,16.48,15.07-4,20.47-.85,9.94,8.24,14.49,0S410.24,208,394.32,211.38Z" style="fill:#fff;stroke:#263238;stroke-linecap:round;stroke-linejoin:round"></path></clipPath><clipPath id="freepik--clip-path-9--inject-582"><path d="M275.92,220.86s-10.76,2-15.47,8.75-13.11,14.12-20.51,17.15-12.45,2-14.46,4.71,1.34,5,1.34,5a18,18,0,0,1-6.73,5.38c-4,1.69-7.73,5.05-6.72,7.4s4.37,2,4.37,2a3.8,3.8,0,0,0,3.7,3.7c3.7.34,9.08-2,9.08-2s2.36,2.69,5.72-.67,9.75-8.07,20.18-10.76,26.9-2.36,35.31-11.44" style="fill:#92E3A9;stroke:#263238;stroke-linecap:round;stroke-linejoin:round"></path></clipPath></defs><g id="freepik--background-simple--inject-582"><path d="M164.47,67.58s-79,40.23-118.34,102.23S9.87,311.48,57.72,370.7,197,422.12,273.62,459.61,434.7,489.39,470.9,409.94s-18.38-109.12-27.77-201S350.88-17.66,164.47,67.58Z" style="fill:#92E3A9"></path><path d="M164.47,67.58s-79,40.23-118.34,102.23S9.87,311.48,57.72,370.7,197,422.12,273.62,459.61,434.7,489.39,470.9,409.94s-18.38-109.12-27.77-201S350.88-17.66,164.47,67.58Z" style="fill:#fff;opacity:0.7000000000000001"></path></g><g id="freepik--Bubbles--inject-582"><circle cx="230.4" cy="87.16" r="8.69" style="fill:none;stroke:#263238;stroke-linecap:round;stroke-linejoin:round"></circle><path d="M236.06,90.71a6.61,6.61,0,0,1-.94,1.17" style="fill:none;stroke:#263238;stroke-linecap:round;stroke-linejoin:round"></path><path d="M233,81a6.68,6.68,0,0,1,4.08,6.16,6.52,6.52,0,0,1-.13,1.33" style="fill:none;stroke:#263238;stroke-linecap:round;stroke-linejoin:round"></path><circle cx="202.31" cy="61" r="5.64" style="fill:none;stroke:#263238;stroke-linecap:round;stroke-linejoin:round"></circle><path d="M206,63.31a5,5,0,0,1-.61.76" style="fill:none;stroke:#263238;stroke-linecap:round;stroke-linejoin:round"></path><path d="M204,57a4.34,4.34,0,0,1,2.65,4,4,4,0,0,1-.09.86" style="fill:none;stroke:#263238;stroke-linecap:round;stroke-linejoin:round"></path><circle cx="147.66" cy="68" r="5.64" style="fill:none;stroke:#263238;stroke-linecap:round;stroke-linejoin:round"></circle><path d="M151.34,70.31a5,5,0,0,1-.61.76" style="fill:none;stroke:#263238;stroke-linecap:round;stroke-linejoin:round"></path><path d="M149.35,64A4.34,4.34,0,0,1,152,68a4,4,0,0,1-.09.86" style="fill:none;stroke:#263238;stroke-linecap:round;stroke-linejoin:round"></path><circle cx="447.75" cy="326.14" r="5.64" style="fill:none;stroke:#263238;stroke-linecap:round;stroke-linejoin:round"></circle><path d="M451.42,328.44a3.7,3.7,0,0,1-.61.76" style="fill:none;stroke:#263238;stroke-linecap:round;stroke-linejoin:round"></path><path d="M449.43,322.14a4.34,4.34,0,0,1,2.66,4,4.12,4.12,0,0,1-.09.86" style="fill:none;stroke:#263238;stroke-linecap:round;stroke-linejoin:round"></path><circle cx="432.5" cy="317.5" r="4.59" style="fill:none;stroke:#263238;stroke-linecap:round;stroke-linejoin:round"></circle><path d="M435.49,319.37a3,3,0,0,1-.5.62" style="fill:none;stroke:#263238;stroke-linecap:round;stroke-linejoin:round"></path><path d="M433.87,314.25A3.53,3.53,0,0,1,436,317.5a4,4,0,0,1-.07.7" style="fill:none;stroke:#263238;stroke-linecap:round;stroke-linejoin:round"></path><path d="M359.13,354.3a4.59,4.59,0,1,1-4.59-4.59A4.58,4.58,0,0,1,359.13,354.3Z" style="fill:none;stroke:#263238;stroke-linecap:round;stroke-linejoin:round"></path><path d="M357.53,356.17a3.72,3.72,0,0,1-.49.62" style="fill:none;stroke:#263238;stroke-linecap:round;stroke-linejoin:round"></path><path d="M355.92,351.05a3.53,3.53,0,0,1,2.15,3.25,3.26,3.26,0,0,1-.07.7" style="fill:none;stroke:#263238;stroke-linecap:round;stroke-linejoin:round"></path><path d="M261.14,338.27a4.59,4.59,0,1,1-4.59-4.58A4.59,4.59,0,0,1,261.14,338.27Z" style="fill:none;stroke:#263238;stroke-linecap:round;stroke-linejoin:round"></path><path d="M259.54,340.15a3.67,3.67,0,0,1-.5.62" style="fill:none;stroke:#263238;stroke-linecap:round;stroke-linejoin:round"></path><path d="M257.92,335a3.53,3.53,0,0,1,2.16,3.25,4.17,4.17,0,0,1-.07.71" style="fill:none;stroke:#263238;stroke-linecap:round;stroke-linejoin:round"></path><circle cx="283.29" cy="314.29" r="8.43" style="fill:none;stroke:#263238;stroke-linecap:round;stroke-linejoin:round"></circle><path d="M288.79,317.74a7.11,7.11,0,0,1-.91,1.14" style="fill:none;stroke:#263238;stroke-linecap:round;stroke-linejoin:round"></path><path d="M285.82,308.32a6.49,6.49,0,0,1,4,6,6.72,6.72,0,0,1-.13,1.29" style="fill:none;stroke:#263238;stroke-linecap:round;stroke-linejoin:round"></path><circle cx="237.52" cy="341" r="8.43" style="fill:none;stroke:#263238;stroke-linecap:round;stroke-linejoin:round"></circle><path d="M243,344.44a6.33,6.33,0,0,1-.91,1.14" style="fill:none;stroke:#263238;stroke-linecap:round;stroke-linejoin:round"></path><path d="M240,335a6.47,6.47,0,0,1,4,6,6.14,6.14,0,0,1-.13,1.29" style="fill:none;stroke:#263238;stroke-linecap:round;stroke-linejoin:round"></path><circle cx="302.64" cy="416.71" r="8.43" style="fill:none;stroke:#263238;stroke-linecap:round;stroke-linejoin:round"></circle><path d="M308.14,420.15a6.33,6.33,0,0,1-.91,1.14" style="fill:none;stroke:#263238;stroke-linecap:round;stroke-linejoin:round"></path><path d="M305.17,410.73a6.49,6.49,0,0,1,4,6A6.88,6.88,0,0,1,309,418" style="fill:none;stroke:#263238;stroke-linecap:round;stroke-linejoin:round"></path><circle cx="458.5" cy="376.34" r="8.43" style="fill:none;stroke:#263238;stroke-linecap:round;stroke-linejoin:round"></circle><path d="M464,379.79a7.11,7.11,0,0,1-.91,1.14" style="fill:none;stroke:#263238;stroke-linecap:round;stroke-linejoin:round"></path><path d="M461,370.37a6.48,6.48,0,0,1,4,6,6.07,6.07,0,0,1-.13,1.29" style="fill:none;stroke:#263238;stroke-linecap:round;stroke-linejoin:round"></path><circle cx="173.75" cy="67.14" r="5.64" style="fill:none;stroke:#263238;stroke-linecap:round;stroke-linejoin:round"></circle><path d="M177.42,69.44a3.7,3.7,0,0,1-.61.76" style="fill:none;stroke:#263238;stroke-linecap:round;stroke-linejoin:round"></path><path d="M175.44,63.14a4.34,4.34,0,0,1,2.65,4A4.12,4.12,0,0,1,178,68" style="fill:none;stroke:#263238;stroke-linecap:round;stroke-linejoin:round"></path><circle cx="131.98" cy="53.57" r="5.64" style="fill:none;stroke:#263238;stroke-linecap:round;stroke-linejoin:round"></circle><path d="M135.66,55.87a4.13,4.13,0,0,1-.61.77" style="fill:none;stroke:#263238;stroke-linecap:round;stroke-linejoin:round"></path><path d="M133.67,49.57a4.35,4.35,0,0,1,2.66,4,4.12,4.12,0,0,1-.09.86" style="fill:none;stroke:#263238;stroke-linecap:round;stroke-linejoin:round"></path><circle cx="100.87" cy="47.01" r="4.32" style="fill:none;stroke:#263238;stroke-linecap:round;stroke-linejoin:round"></circle><path d="M103.69,48.77a3,3,0,0,1-.47.59" style="fill:none;stroke:#263238;stroke-linecap:round;stroke-linejoin:round"></path><path d="M102.17,43.94a3.34,3.34,0,0,1,2,3.07,3.6,3.6,0,0,1-.07.66" style="fill:none;stroke:#263238;stroke-linecap:round;stroke-linejoin:round"></path><path d="M156,25a4.33,4.33,0,1,1-4.32-4.32A4.32,4.32,0,0,1,156,25Z" style="fill:none;stroke:#263238;stroke-linecap:round;stroke-linejoin:round"></path><path d="M154.49,26.77a3.66,3.66,0,0,1-.46.58" style="fill:none;stroke:#263238;stroke-linecap:round;stroke-linejoin:round"></path><path d="M153,21.94A3.32,3.32,0,0,1,155,25a2.84,2.84,0,0,1-.07.66" style="fill:none;stroke:#263238;stroke-linecap:round;stroke-linejoin:round"></path><path d="M236.1,320.36c4.57.68,9.21,1.24,13.9,1.64" style="fill:none;stroke:#263238;stroke-linecap:round;stroke-linejoin:round"></path><path d="M49,308s35-14,74-12c30.51,1.56,62.24,14.14,97.11,21.46" style="fill:none;stroke:#263238;stroke-linecap:round;stroke-linejoin:round"></path><path d="M34,298s41-23,89-15,61,13,61,13" style="fill:none;stroke:#263238;stroke-linecap:round;stroke-linejoin:round"></path><path d="M299.47,88.63c15.27,13.41,39.93,32.58,70,46.86,51.22,24.37,87.78,20.48,94.08,2.52S446.1,112.08,440,118.63s-8.05,13.27-2.45,19.08" style="fill:none;stroke:#263238;stroke-linecap:round;stroke-linejoin:round"></path><path d="M282.61,72.58s2.33,2.52,6.64,6.67" style="fill:none;stroke:#263238;stroke-linecap:round;stroke-linejoin:round"></path><path d="M364,143.29s26.34,27.5,94.22,23.4" style="fill:none;stroke:#263238;stroke-linecap:round;stroke-linejoin:round"></path><path d="M464.34,451.12c3.92-1.2,6.84-2.9,8.66-5.12" style="fill:none;stroke:#263238;stroke-linecap:round;stroke-linejoin:round"></path><path d="M276,450s52-15,102-5c29.92,6,54.83,9.1,71.94,8.29" style="fill:none;stroke:#263238;stroke-linecap:round;stroke-linejoin:round"></path><path d="M282,461s32-14,75-8" style="fill:none;stroke:#263238;stroke-linecap:round;stroke-linejoin:round"></path></g><g id="freepik--Otter-2--inject-582"><path d="M266.25,408.63s25.07-4.13,35.86-15.23,13-28.24,17.45-33,14.91-12.38,16.18-15.55.64-4.13-6-1.27-22.53,18.09-35.23,34.59A259.12,259.12,0,0,1,266.25,408.63Z" style="fill:#92E3A9"></path><g style="clip-path:url(#freepik--clip-path--inject-582)"><path d="M266.25,408.63s25.07-4.13,35.86-15.23,13-28.24,17.45-33,14.91-12.38,16.18-15.55.64-4.13-6-1.27-22.53,18.09-35.23,34.59A259.12,259.12,0,0,1,266.25,408.63Z" style="stroke:#263238;stroke-linecap:round;stroke-linejoin:round;opacity:0.39"></path></g><path d="M266.25,408.63s25.07-4.13,35.86-15.23,13-28.24,17.45-33,14.91-12.38,16.18-15.55.64-4.13-6-1.27-22.53,18.09-35.23,34.59A259.12,259.12,0,0,1,266.25,408.63Z" style="fill:none;stroke:#263238;stroke-linecap:round;stroke-linejoin:round"></path><path d="M134.29,452.27s7.47,8.36,18.22,10.75,25.68-3.28,28.36-6.87-6.57-4.47-13.43-4.47S144.15,455.56,134.29,452.27Z" style="fill:#92E3A9"></path><g style="clip-path:url(#freepik--clip-path-2--inject-582)"><path d="M134.29,452.27s7.47,8.36,18.22,10.75,25.68-3.28,28.36-6.87-6.57-4.47-13.43-4.47S144.15,455.56,134.29,452.27Z" style="stroke:#263238;stroke-linecap:round;stroke-linejoin:round;opacity:0.39"></path></g><path d="M134.29,452.27s7.47,8.36,18.22,10.75,25.68-3.28,28.36-6.87-6.57-4.47-13.43-4.47S144.15,455.56,134.29,452.27Z" style="fill:none;stroke:#263238;stroke-linecap:round;stroke-linejoin:round"></path><path d="M103.54,398.55a50.24,50.24,0,0,0-23.87-6.95c-13.44-.23-25.73,13-28.05,16.69S42.12,415,41,419.64s3,8.12,7.19,8.81a8,8,0,0,0,6.49-1.39,7.08,7.08,0,0,0,4.63,1.85c2.78,0,12.52-2.08,18.78-.46s7.88,10.66,24.33,17.15,30.36,9.27,34.53,9.5,13.21,7,63.27-9.27,71.15-38,71.15-38,25-24.56,38.94-41.48,31.52-26.89,40.79-29.67,32.68-6.25,51.68-.92S432.87,345,448.4,352s26.88,10,35.46,7.65-2.32-.47-9.74-2.55-30.13-21.79-54-30.13S362.18,313.5,339,319.06s-42.18,10.66-60,21.55-64.89,38.94-84.36,48-59.56,15.76-69.76,14.83S107.71,400.41,103.54,398.55Z" style="fill:#92E3A9"></path><g style="clip-path:url(#freepik--clip-path-3--inject-582)"><path d="M196.46,436.5c-8-1.84-31.86,5.51-50.24,6.13s-32.48-.62-48.41-9.2S82.5,418.73,69,416.89c-7.9-1.08-18.32,4.37-25.6,9.43a10.18,10.18,0,0,0,4.73,2.13,8,8,0,0,0,6.49-1.39,7.08,7.08,0,0,0,4.63,1.85c2.78,0,12.52-2.08,18.78-.46s7.88,10.66,24.33,17.15,30.36,9.27,34.53,9.5c3.58.2,10.73,5.16,44.2-3.63l.65-.27C194,446.3,204.43,438.34,196.46,436.5Z" style="fill:#fff"></path><path d="M45,431.5s6-19,29.5-12.5,26,14,49,21S186,437.5,224,420s62.5-30,77.5-49S321,334,358,328s61,4.5,75.5,11.5,35,19,45,21.5c0,0-1,4-18.5-1s-48.5-21.5-73-22-35.5,0-50.5,13-36,35-53.5,50.5-28,28.5-59.5,42-63.5,24-101,14-40-21-48.5-23.5S45,431.5,45,431.5Z" style="opacity:0.2"></path><path d="M84.12,426.08s-.32-14,11.74-18.09" style="fill:none;stroke:#263238;stroke-linecap:round;stroke-linejoin:round"></path><path d="M54.64,427.06s6.72-2.09,5.1-9" style="fill:none;stroke:#263238;stroke-linecap:round;stroke-linejoin:round"></path><path d="M177,443s-3.28,3-15.23,1.79" style="fill:none;stroke:#263238;stroke-linecap:round;stroke-linejoin:round"></path><path d="M82.31,400.79s5.82-1.11,6.65.83-1.67,4.43-4.71,4.71a6.66,6.66,0,0,1-5-1.66" style="fill:none;stroke:#263238;stroke-linecap:round;stroke-linejoin:round"></path><path d="M94.68,422.21S101.9,415,107.06,414s11.86,1,17.53-1" style="fill:none;stroke:#263238;stroke-linecap:round;stroke-linejoin:round"></path><path d="M186.05,410.76a33,33,0,0,0,6.1-1.95" style="fill:none;stroke:#263238;stroke-linecap:round;stroke-linejoin:round"></path><path d="M118.92,419.12s8.25-4.64,21.14-5.16c9.42-.37,26.83-.2,39.94-2.09" style="fill:none;stroke:#263238;stroke-linecap:round;stroke-linejoin:round"></path><path d="M168.43,404.16s23.72,2.07,42.29-8.76" style="fill:none;stroke:#263238;stroke-linecap:round;stroke-linejoin:round"></path><path d="M204.53,402.1s18.05-6.19,25.78-15.47" style="fill:none;stroke:#263238;stroke-linecap:round;stroke-linejoin:round"></path><path d="M249.83,366.17c2.95-1.93,5.94-3.91,8.85-5.84" style="fill:none;stroke:#263238;stroke-linecap:round;stroke-linejoin:round"></path><path d="M239.69,372.73l5.41-3.49" style="fill:none;stroke:#263238;stroke-linecap:round;stroke-linejoin:round"></path><path d="M225.16,382s4.1-2.58,10.06-6.39" style="fill:none;stroke:#263238;stroke-linecap:round;stroke-linejoin:round"></path><path d="M257.55,368.27a38.29,38.29,0,0,1,3.71-1.75" style="fill:none;stroke:#263238;stroke-linecap:round;stroke-linejoin:round"></path><path d="M238.57,380.44s6.47-4.69,13.1-8.77" style="fill:none;stroke:#263238;stroke-linecap:round;stroke-linejoin:round"></path><path d="M96.74,427.89s4.64-6.71,11.35-9.29" style="fill:none;stroke:#263238;stroke-linecap:round;stroke-linejoin:round"></path><path d="M104.48,409.84a75.27,75.27,0,0,1,22.17-1.55" style="fill:none;stroke:#263238;stroke-linecap:round;stroke-linejoin:round"></path><path d="M227.9,405.21a50.16,50.16,0,0,0,5-3.11" style="fill:none;stroke:#263238;stroke-linecap:round;stroke-linejoin:round"></path><path d="M192.67,416.54a142.66,142.66,0,0,0,27.53-7.7" style="fill:none;stroke:#263238;stroke-linecap:round;stroke-linejoin:round"></path><path d="M263.32,376.32s-14.95,10.83-20.63,12.89" style="fill:none;stroke:#263238;stroke-linecap:round;stroke-linejoin:round"></path></g><path d="M103.54,398.55a50.24,50.24,0,0,0-23.87-6.95c-13.44-.23-25.73,13-28.05,16.69S42.12,415,41,419.64s3,8.12,7.19,8.81a8,8,0,0,0,6.49-1.39,7.08,7.08,0,0,0,4.63,1.85c2.78,0,12.52-2.08,18.78-.46s7.88,10.66,24.33,17.15,30.36,9.27,34.53,9.5,13.21,7,63.27-9.27,71.15-38,71.15-38,25-24.56,38.94-41.48,31.52-26.89,40.79-29.67,32.68-6.25,51.68-.92S432.87,345,448.4,352s26.88,10,35.46,7.65-2.32-.47-9.74-2.55-30.13-21.79-54-30.13S362.18,313.5,339,319.06s-42.18,10.66-60,21.55-64.89,38.94-84.36,48-59.56,15.76-69.76,14.83S107.71,400.41,103.54,398.55Z" style="fill:none;stroke:#263238;stroke-linecap:round;stroke-linejoin:round"></path><path d="M268.47,397.52s32-16.18,43.16-33.63,24.11-34.91,29.51-40,8.88-5.4,8.57-8.25-10.48-3.81-16.5.31-9.52,6-16.5,15.87-18.41,15.87-21.58,18.09" style="fill:#92E3A9"></path><g style="clip-path:url(#freepik--clip-path-4--inject-582)"><path d="M334.09,316.86c-7.14,8.86-19.2,37.16-30,52.91s-31.75,25.35-32.49,25.35l1.61-.14c9.32-5.21,30-17.78,38.44-31.09,11.1-17.45,24.11-34.91,29.51-40s8.88-5.4,8.57-8.25c-.27-2.37-7.31-3.43-13.14-1.36A20,20,0,0,0,334.09,316.86Z" style="opacity:0.2"></path></g><path d="M268.47,397.52s32-16.18,43.16-33.63,24.11-34.91,29.51-40,8.88-5.4,8.57-8.25-10.48-3.81-16.5.31-9.52,6-16.5,15.87-18.41,15.87-21.58,18.09" style="fill:none;stroke:#263238;stroke-linecap:round;stroke-linejoin:round"></path><path d="M337.65,314.39s4.44.32,2.54,3.49-5.4,3.49-7.3,6.34" style="fill:none;stroke:#263238;stroke-linecap:round;stroke-linejoin:round"></path><path d="M344.31,313.44s4.76,2.22,0,6-6,6.35-6,6.35" style="fill:none;stroke:#263238;stroke-linecap:round;stroke-linejoin:round"></path><path d="M128.62,430.18a12,12,0,0,0,1.79,8.36c2.69,3.88,21.8,9.85,35.53,9.85s12.84-4.18,11.95-4.78L177,443s2.09-3.29-.89-4.78a8.47,8.47,0,0,0-5.38-.9s-.3-2.38-3.88-2.38-5.37,1.19-9.26.29-5.37-3-5.37-3,11.64,2.09,19.11-4.48" style="fill:#92E3A9"></path><g style="clip-path:url(#freepik--clip-path-5--inject-582)"><path d="M130.41,438.54s-2.58-6.21.88-9,9.45.23,14.29.23,11.29-3.46,18.67-5.76,6.68,4.38,1.38,6.22A75.19,75.19,0,0,1,152.72,433s-5.07.46-3.45,2.53,11.06,3.92,17.74,1.62,15.45.69,15,4.38-.92,8.06-10.84,9S143,448.23,137.05,445,130.41,438.54,130.41,438.54Z" style="opacity:0.2"></path></g><path d="M128.62,430.18a12,12,0,0,0,1.79,8.36c2.69,3.88,21.8,9.85,35.53,9.85s12.84-4.18,11.95-4.78L177,443s2.09-3.29-.89-4.78a8.47,8.47,0,0,0-5.38-.9s-.3-2.38-3.88-2.38-5.37,1.19-9.26.29-5.37-3-5.37-3,11.64,2.09,19.11-4.48" style="fill:none;stroke:#263238;stroke-linecap:round;stroke-linejoin:round"></path><path d="M170.72,437.34a20.35,20.35,0,0,1-15.23,1.21" style="fill:none;stroke:#263238;stroke-linecap:round;stroke-linejoin:round"></path><path d="M177,443s-11.36,2.91-17.58.37" style="fill:none;stroke:#263238;stroke-linecap:round;stroke-linejoin:round"></path><circle cx="62.86" cy="409.33" r="1.74" style="fill:#263238;stroke:#263238;stroke-linecap:round;stroke-linejoin:round"></circle><path d="M53.25,417.56a73.52,73.52,0,0,1,22.94-2.32" style="fill:none;stroke:#263238;stroke-linecap:round;stroke-linejoin:round;stroke-width:0.5px"></path><path d="M54.87,418.48s15.06-.46,26.42,3.94" style="fill:none;stroke:#263238;stroke-linecap:round;stroke-linejoin:round;stroke-width:0.5px"></path><path d="M54.41,419.88A43,43,0,0,1,86.16,434" style="fill:none;stroke:#263238;stroke-linecap:round;stroke-linejoin:round;stroke-width:0.5px"></path><path d="M54.17,420.8c.7.23,13.68,4.41,20.4,16.92" style="fill:none;stroke:#263238;stroke-linecap:round;stroke-linejoin:round;stroke-width:0.5px"></path><path d="M57.74,406.14s4.12-11.95,11.53-14.5" style="fill:none;stroke:#263238;stroke-linecap:round;stroke-linejoin:round;stroke-width:0.5px"></path><path d="M62.75,404.58s5.33-3.94,10.89-2.78" style="fill:none;stroke:#263238;stroke-linecap:round;stroke-linejoin:round;stroke-width:0.5px"></path><path d="M45.85,413.5s-4.71,2.49-5.54,3.87.27,5,.83,6.37,1.1,3.33,2.49,1.39,1.66-6.65,3.6-8.86S48.34,412.39,45.85,413.5Z" style="fill:#263238;stroke:#263238;stroke-linecap:round;stroke-linejoin:round"></path></g><g id="freepik--Otter-1--inject-582"><path d="M314.6,276.69s5.38,6.73,5.72,8.07-2.36,6.06-3.7,12.45,3.7,5.38,3.7,5.38,1,5,2.35,5a6.3,6.3,0,0,0,3-1.34s1,3,3,1,7.06-11.1,7.39-18.16a42,42,0,0,0-2-14.8c-.68-2-16.15-2.69-18.5-2s-1.35,3-1.35,3" style="fill:#92E3A9"></path><g style="clip-path:url(#freepik--clip-path-6--inject-582)"><path d="M314.6,276.69s5.38,6.73,5.72,8.07-2.36,6.06-3.7,12.45,3.7,5.38,3.7,5.38,1,5,2.35,5a6.3,6.3,0,0,0,3-1.34s1,3,3,1,7.06-11.1,7.39-18.16a42,42,0,0,0-2-14.8c-.68-2-16.15-2.69-18.5-2s-1.35,3-1.35,3" style="stroke:#263238;stroke-linecap:round;stroke-linejoin:round;opacity:0.39"></path></g><path d="M314.6,276.69s5.38,6.73,5.72,8.07-2.36,6.06-3.7,12.45,3.7,5.38,3.7,5.38,1,5,2.35,5a6.3,6.3,0,0,0,3-1.34s1,3,3,1,7.06-11.1,7.39-18.16a42,42,0,0,0-2-14.8c-.68-2-16.15-2.69-18.5-2s-1.35,3-1.35,3" style="fill:none;stroke:#263238;stroke-linecap:round;stroke-linejoin:round"></path><path d="M163.27,128.4c5.76,1.83-13.07,11.65-21.31,26.43s-3.41,19.89-2.56,26.71-3.13,10.8-6.54,15.06-1.7,11.94-1.7,11.94l3.12-1.42a17.15,17.15,0,0,0-.85,4c-.28,2.56,3.7,6.82,3.7,6.82s1.42-1.71,3.41-4a14.38,14.38,0,0,1,4.83-3.41l-.57,5.12s7.1.85,11.94-6.54,1.7-15.06.28-20.75,4-7.1,4-7.1h4.83c4.83,0,13.64,2.55,44,20.18s39.5,28.7,52.29,40.35,26.72,18.19,44.91,31.55,40.35,7.1,60,.57,37.23-23.31,37.23-23.31,17.34-8.24,16.48-25.86-15.06-21.32-32.11-23-19.89,3.69-30.69,7.1-22.45,2.56-44.05-28.42-22.17-37.79-50.59-58.82c0,0-24-20.53-51-29.52s-63.62-9.64-95.1-6.43S52.3,68.28,43.3,46.44,33,11.09,30.45,15s-3.21,73.9,36.63,95.74S150.23,124.25,163.27,128.4Z" style="fill:#92E3A9"></path><g style="clip-path:url(#freepik--clip-path-7--inject-582)"><path d="M418.84,235.51c-10-10.2-30.3-13.89-39.12-12.91,0,0-17,.56-18.08,7.91s7.35,9,3.39,13.56-13,14.69-34.46,8.47-44.64.57-50.85,0c-1.12-.1-1.78.34-2,1.17,8.66,5.81,18.21,11.44,29.36,19.63,18.18,13.35,40.35,7.1,60,.57s37.23-23.31,37.23-23.31S414.48,245.74,418.84,235.51Z" style="fill:#fff"></path><path d="M27.91,22.65S26.6,74,56.23,93.11a157.34,157.34,0,0,0,85,25c24.37,0,38.86,9.88,33.59,13.83s-32.93,18.44-30.95,32.93,13.83,9.88,23,8.56,12.51.66,45.44,18.44,36.88,29.64,54,43.47,27,26.34,56.64,30.95,38.86,2,48.74-6.58-11.86-19.76-2-25,29-8.56,36.22-4,13.18,6.59,7.91,19.76-27.66,31-54,32.93-41.49,3.29-59.27-7.25-30.95-27.66-68.49-50.71-70.47-42.81-70.47-36.22,5.27,15.15-2.64,24.37-20.41,13.17-25.68,7.9-11.2-18.44-6.59-27.66,2.64-17.78,4.61-29.64,12.52-25,14.49-29.63-10.54,5.92-37.54-.66S51,115.51,39.77,97.07,26.6,25.94,27.91,22.65Z" style="opacity:0.2"></path><path d="M280.64,182.65a32.82,32.82,0,0,0,5.24,2.11" style="fill:none;stroke:#263238;stroke-linecap:round;stroke-linejoin:round"></path><path d="M195.69,142S219.13,145,238,154.19c14.47,7,26.83,18.87,38,25.84" style="fill:none;stroke:#263238;stroke-linecap:round;stroke-linejoin:round"></path><path d="M258.36,177.63s24.46,15.28,38.73,20.89a103.52,103.52,0,0,0,26,6.62" style="fill:none;stroke:#263238;stroke-linecap:round;stroke-linejoin:round"></path><path d="M191.61,132.79s27.52,1.53,39.75,7.64,17.83,9.17,17.83,9.17" style="fill:none;stroke:#263238;stroke-linecap:round;stroke-linejoin:round"></path><path d="M304.82,217.07c1.59.94,3.1,1.89,4.5,2.85,19.36,13.24,31.59,13.24,36.68,11.21" style="fill:none;stroke:#263238;stroke-linecap:round;stroke-linejoin:round"></path><path d="M248.68,195c1,0,18.51,5.06,35.89,12.29" style="fill:none;stroke:#263238;stroke-linecap:round;stroke-linejoin:round"></path><path d="M354.66,226s-7.64-.51-21.4-4.08-15.79-6.11-15.79-6.11" style="fill:none;stroke:#263238;stroke-linecap:round;stroke-linejoin:round"></path><path d="M318,240.3s20.89,4.58,33.12,8.66,25.47,3.57,27.51,1.53" style="fill:none;stroke:#263238;stroke-linecap:round;stroke-linejoin:round"></path><path d="M310.33,244.37s24.46,7.65,32.11,7.14" style="fill:none;stroke:#263238;stroke-linecap:round;stroke-linejoin:round"></path><path d="M166.86,154a79.81,79.81,0,0,1,18.13,9.4c17.32,11.72,32.1,18.34,35.16,19.36" style="fill:none;stroke:#263238;stroke-linecap:round;stroke-linejoin:round"></path><path d="M156.46,151.64a24.33,24.33,0,0,1,4.62.65" style="fill:none;stroke:#263238;stroke-linecap:round;stroke-linejoin:round"></path><path d="M123.53,105.67c11.51.32,30.78.56,51.27-.4,32.61-1.53,58.09,6.12,70.82,14.78" style="fill:none;stroke:#263238;stroke-linecap:round;stroke-linejoin:round"></path><path d="M112.64,105.27s1.75.09,4.86.21" style="fill:none;stroke:#263238;stroke-linecap:round;stroke-linejoin:round"></path></g><path d="M163.27,128.4c5.76,1.83-13.07,11.65-21.31,26.43s-3.41,19.89-2.56,26.71-3.13,10.8-6.54,15.06-1.7,11.94-1.7,11.94l3.12-1.42a17.15,17.15,0,0,0-.85,4c-.28,2.56,3.7,6.82,3.7,6.82s1.42-1.71,3.41-4a14.38,14.38,0,0,1,4.83-3.41l-.57,5.12s7.1.85,11.94-6.54,1.7-15.06.28-20.75,4-7.1,4-7.1h4.83c4.83,0,13.64,2.55,44,20.18s39.5,28.7,52.29,40.35,26.72,18.19,44.91,31.55,40.35,7.1,60,.57,37.23-23.31,37.23-23.31,17.34-8.24,16.48-25.86-15.06-21.32-32.11-23-19.89,3.69-30.69,7.1-22.45,2.56-44.05-28.42-22.17-37.79-50.59-58.82c0,0-24-20.53-51-29.52s-63.62-9.64-95.1-6.43S52.3,68.28,43.3,46.44,33,11.09,30.45,15s-3.21,73.9,36.63,95.74S150.23,124.25,163.27,128.4Z" style="fill:none;stroke:#263238;stroke-linecap:round;stroke-linejoin:round"></path><path d="M367.77,206.38s-7.41-1-11.28.33-9.67,2.57-8.06,4.51,8.06-.32,9.35,0,3.86,1.93,5.48,2.25,4.19-4.19,4.19-4.19" style="fill:#92E3A9;stroke:#263238;stroke-linecap:round;stroke-linejoin:round"></path><circle cx="379.83" cy="211.38" r="3.41" style="fill:#263238;stroke:#263238;stroke-linecap:round;stroke-linejoin:round"></circle><path d="M416.49,214.51a2.28,2.28,0,1,1-2.27-2.28A2.27,2.27,0,0,1,416.49,214.51Z" style="fill:#263238;stroke:#263238;stroke-linecap:round;stroke-linejoin:round"></path><path d="M366.39,210.1s-12.1,13.12-6.72,23.21,18.83,11.43,18.83,11.43" style="fill:none;stroke:#263238;stroke-linecap:round;stroke-linejoin:round"></path><path d="M394,234.37a7.47,7.47,0,0,0,6,4.29c4.28.29,6-4.57,6-4.57S400,228.94,394,234.37Z" style="fill:#263238;stroke:#263238;stroke-linecap:round;stroke-linejoin:round"></path><path d="M394.32,211.38s-11.08-.57-17.33,8.53,1.14,15.91,7.1,16.48,15.07-4,20.47-.85,9.94,8.24,14.49,0S410.24,208,394.32,211.38Z" style="fill:#fff"></path><g style="clip-path:url(#freepik--clip-path-8--inject-582)"><path d="M404.56,235.54c5.4,3.12,9.94,8.24,14.49,0a7.3,7.3,0,0,0,.51-1.22c-5.12-2-7.6-9.45-14.08-12.19-8.88-3.75-11.61,1-20.15,1.71s-6.48-6.15-6.48-6.15l-.11,0a18.34,18.34,0,0,0-1.75,2.18c-6.25,9.09,1.14,15.91,7.1,16.48S399.16,232.41,404.56,235.54Z" style="opacity:0.2"></path></g><path d="M394.32,211.38s-11.08-.57-17.33,8.53,1.14,15.91,7.1,16.48,15.07-4,20.47-.85,9.94,8.24,14.49,0S410.24,208,394.32,211.38Z" style="fill:none;stroke:#263238;stroke-linecap:round;stroke-linejoin:round"></path><path d="M409.27,217.67c-1-3.4-8.5-6.57-11-6.57-5.4,0-9.38,4-6.82,6.82s7.67,1.42,10.23,2.27c1.92.64,7.31,1.48,7.65-1.52A2.44,2.44,0,0,0,409.27,217.67Z" style="fill:#263238;stroke:#263238;stroke-linecap:round;stroke-linejoin:round"></path><path d="M380.86,224.9S358,234,351.6,241.38" style="fill:none;stroke:#263238;stroke-linecap:round;stroke-linejoin:round;stroke-width:0.5px"></path><path d="M381.53,226.92s-27.92,17.49-35.32,28.25" style="fill:none;stroke:#263238;stroke-linecap:round;stroke-linejoin:round;stroke-width:0.5px"></path><path d="M382.54,228.6s-22.87,19.51-29.94,36.66" style="fill:none;stroke:#263238;stroke-linecap:round;stroke-linejoin:round;stroke-width:0.5px"></path><path d="M384.22,229.61s-13.79,19.5-18.16,35.31" style="fill:none;stroke:#263238;stroke-linecap:round;stroke-linejoin:round;stroke-width:0.5px"></path><path d="M418.52,231.29s14.13,15.47,16.15,28.25" style="fill:none;stroke:#263238;stroke-linecap:round;stroke-linejoin:round;stroke-width:0.5px"></path><path d="M417.51,234.32s6.06,11.77,6.06,29.59" style="fill:none;stroke:#263238;stroke-linecap:round;stroke-linejoin:round;stroke-width:0.5px"></path><path d="M416.17,236.67s2,20.18-1.68,36.66" style="fill:none;stroke:#263238;stroke-linecap:round;stroke-linejoin:round;stroke-width:0.5px"></path><path d="M414.49,237.34s-2,21.19-7.4,37.67" style="fill:none;stroke:#263238;stroke-linecap:round;stroke-linejoin:round;stroke-width:0.5px"></path><path d="M388.93,205.73s-4-8.75-12.11-13.12" style="fill:none;stroke:#263238;stroke-linecap:round;stroke-linejoin:round;stroke-width:0.5px"></path><path d="M384.89,203.37s-7.73-5-13.79-5.71" style="fill:none;stroke:#263238;stroke-linecap:round;stroke-linejoin:round;stroke-width:0.5px"></path><path d="M409.78,207.75s5.38-6.06,11.1-6.06" style="fill:none;stroke:#263238;stroke-linecap:round;stroke-linejoin:round;stroke-width:0.5px"></path><path d="M409.78,209.09s7.4-2.69,11.1-2.69" style="fill:none;stroke:#263238;stroke-linecap:round;stroke-linejoin:round;stroke-width:0.5px"></path><path d="M275.92,220.86s-10.76,2-15.47,8.75-13.11,14.12-20.51,17.15-12.45,2-14.46,4.71,1.34,5,1.34,5a18,18,0,0,1-6.73,5.38c-4,1.69-7.73,5.05-6.72,7.4s4.37,2,4.37,2a3.8,3.8,0,0,0,3.7,3.7c3.7.34,9.08-2,9.08-2s2.36,2.69,5.72-.67,9.75-8.07,20.18-10.76,26.9-2.36,35.31-11.44" style="fill:#92E3A9"></path><g style="clip-path:url(#freepik--clip-path-9--inject-582)"><path d="M278.38,257.35s9.52-7,5-13-21.54,5-33.56,9.52-23,6.51-16,1.5c5.94-4.24,14.4-10.65,15.62-14.33a41.34,41.34,0,0,1-9.49,5.75c-7.4,3-12.45,2-14.46,4.71s1.34,5,1.34,5a18,18,0,0,1-6.73,5.38c-4,1.69-7.73,5.05-6.72,7.4s4.37,2,4.37,2a3.8,3.8,0,0,0,3.7,3.7c3.7.34,9.08-2,9.08-2s2.36,2.69,5.72-.67,9.75-8.07,20.18-10.76c6.17-1.6,14.46-2.14,21.95-4.19Z" style="opacity:0.2"></path></g><path d="M275.92,220.86s-10.76,2-15.47,8.75-13.11,14.12-20.51,17.15-12.45,2-14.46,4.71,1.34,5,1.34,5a18,18,0,0,1-6.73,5.38c-4,1.69-7.73,5.05-6.72,7.4s4.37,2,4.37,2a3.8,3.8,0,0,0,3.7,3.7c3.7.34,9.08-2,9.08-2s2.36,2.69,5.72-.67,9.75-8.07,20.18-10.76,26.9-2.36,35.31-11.44" style="fill:none;stroke:#263238;stroke-linecap:round;stroke-linejoin:round"></path><path d="M217.74,271.31s7.72-1.91,10.72-6.57" style="fill:none;stroke:#263238;stroke-linecap:round;stroke-linejoin:round"></path><path d="M230.52,273s4.93-3.26,6.26-6.59" style="fill:none;stroke:#263238;stroke-linecap:round;stroke-linejoin:round"></path></g></svg>